<?xml version="1.0" standalone="yes"?>
<svg xmlns="http://www.w3.org/2000/svg" width="800" height="600">
<path style="fill:#010102; stroke:none;" d="M0 0L0 600L800 600L800 0L0 0z"/>
<path style="fill:#338dc1; stroke:none;" d="M248 215L235.056 188L248 162C170.725 162 102.652 230.004 110.17 309C115.34 363.331 148.597 411.145 201 429.691C213.482 434.109 231.503 439.943 244.907 437.848C249.895 437.068 252.279 430.812 254.681 427C257.282 422.873 262.646 417.016 262.933 412C263.287 405.805 253.457 391.705 249.215 387.318C244.455 382.396 228.849 383.142 222 380.971C205.397 375.709 191.229 365.497 180.311 352C135.922 297.124 179.234 215 248 215z"/>
<path style="fill:#999a9a; stroke:none;" d="M366 300C375.964 291.94 384.148 279.035 392.2 269C394.472 266.168 399.432 261.968 399.119 258C398.802 253.988 394.018 249.891 391.576 247C384.63 238.779 377.417 230.869 370.09 223C339.94 190.62 299.823 157.688 252.04 162.059C246.297 162.584 244.509 168.608 241.999 173C239.544 177.296 234.864 182.908 234.615 188C234.324 193.967 243.768 209.691 248.39 213.397C252.088 216.362 260.382 215.467 265 216.131C274.65 217.519 284.647 220.322 293 225.467C322.481 243.623 343.613 274.355 366 300z"/>
<path style="fill:#e2e3e3; stroke:none;" d="M248 385C251.723 391.993 263.274 403.939 262.799 412C262.302 420.416 251.603 430.382 248 438C273.439 437.475 299.858 432.021 322 419.125C355.643 399.53 381.253 364.761 405.201 335.004C431.599 302.202 458.503 269.189 489 240.039C499.355 230.142 510.993 221.882 525 218.375C531.763 216.682 546.013 217.701 551.363 213.972C556.121 210.656 565.991 192.783 565.138 187C564.495 182.639 560.775 177.844 558.691 174C556.674 170.279 554.356 163.558 549.895 162.318C542.019 160.128 530.877 163.263 523 164.586C492.103 169.78 468.136 185.279 446.015 206.961C406.308 245.879 374.16 291.57 337.166 333C312.367 360.772 287.188 384.676 248 385z"/>
<path style="fill:#999a9a; stroke:none;" d="M552 162L553 163L552 162z"/>
<path style="fill:#338dc1; stroke:none;" d="M553 162L565.188 188L552 215C620.351 215 664.593 297.325 619.678 352C608.838 365.196 595.26 375.229 579 380.645C571.937 382.998 555.678 382.26 550.786 387.318C546.583 391.663 536.989 404.852 537.148 411C537.284 416.237 542.984 422.639 545.6 427C547.883 430.805 550.169 437.078 555.093 437.848C566.266 439.596 581.302 435.173 592 432.14C642.92 417.705 682.04 371.292 688.714 319C699.118 237.492 636.297 162 553 162z"/>
<path style="fill:#999a9a; stroke:none;" d="M553 164L554 165L553 164M554 166L555 167L554 166M555 168L556 169L555 168M556 170L557 171L556 170z"/>
<path style="fill:#e2e3e3; stroke:none;" d="M312 175L313 176L312 175z"/>
<path style="fill:#999a9a; stroke:none;" d="M559 175L560 176L559 175M560 177L561 178L560 177M561 179L562 180L561 179M562 181L563 182L562 181M564 184L565 185L564 184M565 186L566 187L565 186M565 189L566 190L565 189M564 191L565 192L564 191M563 193L564 194L563 193M560 198L561 199L560 198M559 200L560 201L559 200z"/>
<path style="fill:#e2e3e3; stroke:none;" d="M349 202L350 203L349 202z"/>
<path style="fill:#999a9a; stroke:none;" d="M558 202L559 203L558 202M557 204L558 205L557 204M555 207L556 208L555 207M554 209L555 210L554 209M553 211L554 212L553 211M552 213L553 214L552 213z"/>
<path style="fill:#010102; stroke:none;" d="M248 214.71C234.708 214.887 222.037 217.29 210 223.109C199.635 228.119 189.816 235.074 182.464 244C135.548 300.963 177.055 386.797 251 384.985C291.415 383.995 317.588 356.871 342.576 328C347.936 321.807 364.256 308.383 364.694 300C364.872 296.599 361.227 293.383 359.247 291C353.64 284.252 347.952 277.585 342.155 271C316.118 241.424 290.005 214.151 248 214.71z"/>
<path style="fill:#e2e3e3; stroke:none;" d="M336 214C336.976 221.509 332.158 223.563 328 229L346 224L336 214z"/>
<path style="fill:#010102; stroke:none;" d="M539 215.428C502.717 220.624 479.485 246.503 456.285 273C451.402 278.576 435.356 292.26 435.828 300C436.392 309.242 453.701 323.225 459.576 330C486.722 361.308 518.143 390.998 563 384.572C575.682 382.755 588.222 378.67 599 371.655C608.529 365.453 616.953 357.441 623.329 348C664.75 286.668 611.613 205.031 539 215.428z"/>
<path style="fill:#e2e3e3; stroke:none;" d="M276 218L277 219L276 218M367 220L368 221L367 220M343 243C340.685 237.258 340.077 234.085 347 238L348 237L344 232L344 231L354 234L348 225C339.437 228.988 331.114 237.437 343 243M353 248C348.902 247.812 348.352 245.595 347 242L346 242C344.668 246.905 350.704 256.797 354.589 249.681C356.189 246.751 354.271 242.137 354 239L359 246C364.845 238.111 349.771 232.513 351.395 242.976C351.663 244.704 352.406 246.37 353 248M312 240L313 241L312 240M362 245C365.47 252.772 356.319 253.832 356 261C362.201 257.784 364.683 252.329 372 255C370.093 250.079 367.176 246.457 362 245M644 254C647.671 269.26 665.058 263.361 659 249L644 254z"/>
<path style="fill:#999a9a; stroke:none;" d="M659 249L660 250L659 249M655 250L656 251L655 250M652 251L653 252L652 251M649 252L650 253L649 252M660 252L661 253L660 252M646 253L647 254L646 253M655 253L656 254L655 253z"/>
<path style="fill:#338dc1; stroke:none;" d="M648 256C650.324 263.651 658.935 260.297 658 253L648 256z"/>
<path style="fill:#999a9a; stroke:none;" d="M652 254L653 255L652 254M658 254L659 255L658 254z"/>
<path style="fill:#e2e3e3; stroke:none;" d="M138 256L143 265C139.304 265.118 136.136 265.118 135 269L152 268L138 256z"/>
<path style="fill:#999a9a; stroke:none;" d="M139 256L140 257L139 256M644 256L645 257L644 256M647.333 256.667L647.667 257.333L647.333 256.667M140 257L141 258L140 257z"/>
<path style="fill:#e2e3e3; stroke:none;" d="M329 257L330 258L329 257z"/>
<path style="fill:#999a9a; stroke:none;" d="M658 257L659 258L658 257M141 258L142 259L141 258M425 258L426 259L425 258M142 259L143 260L142 259z"/>
<path style="fill:#5c5e5e; stroke:none;" d="M424 259L425 260L424 259z"/>
<path style="fill:#010102; stroke:none;" d="M425 259L424 260L432 267L432 268L418 266C419.644 271.854 424.534 275.686 430 278L422 270L422 269L437 270L425 259z"/>
<path style="fill:#5c5e5e; stroke:none;" d="M426 259L427 260L426 259z"/>
<path style="fill:#999a9a; stroke:none;" d="M645 259L646 260L645 259M648 259L649 260L648 259M660 259L661 260L660 259M139 260L140 261L139 260M143 260L144 261L143 260M423 260L424 261L423 260z"/>
<path style="fill:#5c5e5e; stroke:none;" d="M427 260L428 261L427 260z"/>
<path style="fill:#999a9a; stroke:none;" d="M649 260L650 261L649 260M654 260L655 261L654 260M140 261L141 262L140 261M144 261L145 262L144 261z"/>
<path style="fill:#e2e3e3; stroke:none;" d="M374 279L378 272L375 273L375 269C380.252 268.599 383.993 261.622 377.085 261.751C365.707 261.962 365.108 274.249 374 279z"/>
<path style="fill:#999a9a; stroke:none;" d="M424 261L425 262L424 261z"/>
<path style="fill:#5c5e5e; stroke:none;" d="M428 261L429 262L428 261z"/>
<path style="fill:#999a9a; stroke:none;" d="M141 262L142 263L141 262M145 262L146 263L145 262M425 262L426 263L425 262M657 262L658 263L657 262M142 263L143 264L142 263M146 263L147 264L146 263M426 263L427 264L426 263M431 263L432 264L431 263M649 263L650 264L649 263M655 263L656 264L655 263M148 264L149 265L148 264M376 264L376 267L379 267L379 264L376 264M432 264L433 265L432 264M663 264L665 266L663 264M137 265L138 266L137 265M433 265L434 266L433 265M658.667 265.333L659.333 265.667L658.667 265.333z"/>
<path style="fill:#e2e3e3; stroke:none;" d="M648 268L653 278L651 270L656 269L660 275L658 269L663 268L666 275C665.445 262.3 657.481 266.044 648 268z"/>
<path style="fill:#999a9a; stroke:none;" d="M152 266L153 267L152 266z"/>
<path style="fill:#5c5e5e; stroke:none;" d="M421.667 266.333L422.333 266.667L421.667 266.333z"/>
<path style="fill:#999a9a; stroke:none;" d="M423.667 266.333L424.333 266.667L423.667 266.333z"/>
<path style="fill:#5c5e5e; stroke:none;" d="M430 266L432 268L430 266M434 266L435 267L434 266z"/>
<path style="fill:#999a9a; stroke:none;" d="M654 266L655 267L654 266M142 267L143 268L142 267M148 267L149 268L148 267z"/>
<path style="fill:#5c5e5e; stroke:none;" d="M417.333 267.667L417.667 268.333L417.333 267.667M427.667 267.333L428.333 267.667L427.667 267.333z"/>
<path style="fill:#999a9a; stroke:none;" d="M429.667 267.333L430.333 267.667L429.667 267.333z"/>
<path style="fill:#5c5e5e; stroke:none;" d="M435 267L436 268L435 267z"/>
<path style="fill:#999a9a; stroke:none;" d="M649.667 267.333L650.333 267.667L649.667 267.333M137 268L138 269L137 268M151 268L152 269L151 268M370 268L372 273L372 268L370 268z"/>
<path style="fill:#5c5e5e; stroke:none;" d="M436 268L437 269L436 268z"/>
<path style="fill:#999a9a; stroke:none;" d="M659 268L660 269L659 268M662 268L663 269L662 268z"/>
<path style="fill:#e2e3e3; stroke:none;" d="M340 269L341 270L340 269z"/>
<path style="fill:#5c5e5e; stroke:none;" d="M418 269L419 270L418 269M422 269L424 271L422 269z"/>
<path style="fill:#999a9a; stroke:none;" d="M423.667 269.333L424.333 269.667L423.667 269.333z"/>
<path style="fill:#5c5e5e; stroke:none;" d="M425.667 269.333L426.333 269.667L425.667 269.333z"/>
<path style="fill:#999a9a; stroke:none;" d="M648 269L649 270L648 269M654 269L655 270L654 269M658 269L659 270L658 269M665 269L666 270L665 269M414 270L412 272L412 273L417 277L413 273L413 272L414 270M419 270L420 271L419 270M429.667 270.333L430.333 270.667L429.667 270.333z"/>
<path style="fill:#5c5e5e; stroke:none;" d="M431.667 270.333L432.333 270.667L431.667 270.333z"/>
<path style="fill:#999a9a; stroke:none;" d="M436 270L437 271L436 270M651.333 270.667L651.667 271.333L651.333 270.667z"/>
<path style="fill:#010102; stroke:none;" d="M414 271L413 272L425 283L426 282L414 271z"/>
<path style="fill:#5c5e5e; stroke:none;" d="M415 271L416 272L415 271z"/>
<path style="fill:#999a9a; stroke:none;" d="M420 271L421 272L420 271M656 271L657 272L656 271M136 272L137 273L136 272z"/>
<path style="fill:#e2e3e3; stroke:none;" d="M137.059 272.746C127.669 276.548 136.821 288.417 144.891 284.976C154.221 280.999 145.1 269.49 137.059 272.746z"/>
<path style="fill:#999a9a; stroke:none;" d="M143 272L144 273L143 272z"/>
<path style="fill:#5c5e5e; stroke:none;" d="M416 272L417 273L416 272z"/>
<path style="fill:#999a9a; stroke:none;" d="M421 272L422 273L421 272M426 272L427 273L426 272M663 272L664 273L663 272z"/>
<path style="fill:#5c5e5e; stroke:none;" d="M417 273L418 274L417 273z"/>
<path style="fill:#999a9a; stroke:none;" d="M427 273L428 274L427 273M649 273L650 274L649 273M659 273L660 274L659 273M147 274L148 275L147 274M428 274L429 275L428 274M666 274L667 275L666 274z"/>
<path style="fill:#338dc1; stroke:none;" d="M137.337 276.031C132.311 279.443 140.953 284.144 144.547 281.782C149.549 278.495 141.105 273.473 137.337 276.031z"/>
<path style="fill:#999a9a; stroke:none;" d="M143 275L144 276L143 275M420 275L421 276L420 275z"/>
<path style="fill:#5c5e5e; stroke:none;" d="M425 275L426 276L425 275M429 275L430 276L429 275z"/>
<path style="fill:#999a9a; stroke:none;" d="M652 275L653 276L652 275M657.667 275.333L658.333 275.667L657.667 275.333M145 276L146 277L145 276M421 276L422 277L421 276z"/>
<path style="fill:#5c5e5e; stroke:none;" d="M426 276L427 277L426 276M430 276L431 277L430 276z"/>
<path style="fill:#999a9a; stroke:none;" d="M146 277L147 278L146 277M422 277L423 278L422 277z"/>
<path style="fill:#5c5e5e; stroke:none;" d="M427 277L428 278L427 277z"/>
<path style="fill:#999a9a; stroke:none;" d="M650 277L651 278L650 277M132.333 278.667L132.667 279.333L132.333 278.667M149 278L150 279L149 278z"/>
<path style="fill:#5c5e5e; stroke:none;" d="M419 278L420 279L419 278M423 278L424 279L423 278z"/>
<path style="fill:#999a9a; stroke:none;" d="M428.667 278.333L429.333 278.667L428.667 278.333M655 278L656 279L655 278M661 278L662 279L661 278z"/>
<path style="fill:#e2e3e3; stroke:none;" d="M657 288L655 288L656 279C651.09 280.591 649.264 290.133 656 290.133C660.296 290.133 661.42 282.955 665 281L663 288C672.798 288.158 663.602 271.579 658.714 283.019C658.027 284.627 657.541 286.34 657 288z"/>
<path style="fill:#999a9a; stroke:none;" d="M406 279L405 281L406 279z"/>
<path style="fill:#010102; stroke:none;" d="M407 279L406 280L415 295L413 291L413 290L423 286L407 279z"/>
<path style="fill:#999a9a; stroke:none;" d="M409 279L410 280L409 279z"/>
<path style="fill:#5c5e5e; stroke:none;" d="M420 279L421 280L420 279M424 279L425 280L424 279z"/>
<path style="fill:#999a9a; stroke:none;" d="M666 279L667 280L666 279M146 280L147 281L146 280z"/>
<path style="fill:#5c5e5e; stroke:none;" d="M411 280L412 281L411 280z"/>
<path style="fill:#999a9a; stroke:none;" d="M412 280L413 281L412 280z"/>
<path style="fill:#5c5e5e; stroke:none;" d="M421 280L422 281L421 280M425 280L426 281L425 280M512 280L513 281L512 280z"/>
<path style="fill:#999a9a; stroke:none;" d="M659 280L660 281L659 280z"/>
<path style="fill:#5c5e5e; stroke:none;" d="M414 281L415 282L414 281z"/>
<path style="fill:#999a9a; stroke:none;" d="M422 281L423 282L422 281M426 281L427 282L426 281M655 281L656 282L655 281M662 281L663 282L662 281M664 281L665 282L664 281M667 281L668 282L667 281M139.667 282.333L140.333 282.667L139.667 282.333M144 282L145 283L144 282M148 282L149 283L148 282M406 282L407 283L406 282M409 282L410 283L409 282z"/>
<path style="fill:#5c5e5e; stroke:none;" d="M410 282L409 284L410 282z"/>
<path style="fill:#999a9a; stroke:none;" d="M417 282L418 283L417 282M423 282L424 283L423 282z"/>
<path style="fill:#5c5e5e; stroke:none;" d="M425 282L426 283L425 282z"/>
<path style="fill:#999a9a; stroke:none;" d="M651 282L652 283L651 282M661 282L662 283L661 282z"/>
<path style="fill:#e2e3e3; stroke:none;" d="M410 283L412 287L413 287L414 284L410 283z"/>
<path style="fill:#999a9a; stroke:none;" d="M412 283L413 284L412 283z"/>
<path style="fill:#5c5e5e; stroke:none;" d="M419 283L420 284L419 283z"/>
<path style="fill:#999a9a; stroke:none;" d="M420 283L421 284L420 283M658 283L659 284L658 283M665.333 283.667L665.667 284.333L665.333 283.667M136 284L137 285L136 284M146 284L147 285L146 284z"/>
<path style="fill:#e2e3e3; stroke:none;" d="M353 284L354 285L353 284z"/>
<path style="fill:#999a9a; stroke:none;" d="M407 284L408 285L407 284M410 284L411 285L410 284M414.333 284.667L414.667 285.333L414.333 284.667z"/>
<path style="fill:#5c5e5e; stroke:none;" d="M422 284L423 285L422 284z"/>
<path style="fill:#999a9a; stroke:none;" d="M139 285L140 286L139 285M144 285L145 286L144 285z"/>
<path style="fill:#5c5e5e; stroke:none;" d="M399 288L403 286L399 288z"/>
<path style="fill:#010102; stroke:none;" d="M394 295L398 292L399 292L409 301L410 298L400 291L403 286L394 295z"/>
<path style="fill:#999a9a; stroke:none;" d="M403 286L404 287L403 286M408 286L409 287L408 286z"/>
<path style="fill:#5c5e5e; stroke:none;" d="M411 286L412 287L411 286z"/>
<path style="fill:#999a9a; stroke:none;" d="M413 286L414 287L413 286M419 286L420 287L419 286z"/>
<path style="fill:#5c5e5e; stroke:none;" d="M420 286L421 287L420 286M567 286L568 287L567 286z"/>
<path style="fill:#999a9a; stroke:none;" d="M651 286L652 287L651 286M657 286L658 287L657 286M660 286L661 287L660 286M664 286L665 287L664 286z"/>
<path style="fill:#e2e3e3; stroke:none;" d="M145 287L145 294L131 293C132.2 298.6 142.414 297 147 297L148 287L145 287z"/>
<path style="fill:#5c5e5e; stroke:none;" d="M402 287L403 288L402 287z"/>
<path style="fill:#999a9a; stroke:none;" d="M412 287L413 288L412 287M655.667 287.333L656.333 287.667L655.667 287.333M398 288L399 289L398 288z"/>
<path style="fill:#5c5e5e; stroke:none;" d="M401 288L402 289L401 288z"/>
<path style="fill:#999a9a; stroke:none;" d="M409 288L410 289L409 288M415 288L416 289L415 288M663 288L663 290L665 290L663 288M666 288L667 289L666 288M397 289L398 290L397 289z"/>
<path style="fill:#5c5e5e; stroke:none;" d="M400.333 289.667L400.667 290.333L400.333 289.667M410 289L411 290L410 289z"/>
<path style="fill:#999a9a; stroke:none;" d="M414 289L415 290L414 289M147 290L147 295L148 295L147 290M396 290L397 291L396 290M410 290L411 291L410 290z"/>
<path style="fill:#5c5e5e; stroke:none;" d="M413 290L414 291L413 290z"/>
<path style="fill:#999a9a; stroke:none;" d="M654 290L655 291L654 290M657 290L658 291L657 290M395 291L396 292L395 291z"/>
<path style="fill:#5c5e5e; stroke:none;" d="M411 291L412 292L411 291z"/>
<path style="fill:#999a9a; stroke:none;" d="M414 291L415 292L414 291M398 292L399 293L398 292M403 292L404 293L403 292M411 292L412 293L411 292M664 292L664 293L668 293L665 295L665 296L669 295L669 293L664 292M133 293L133 294L137 294L133 293M397 293L398 294L397 293M404 293L405 294L404 293z"/>
<path style="fill:#5c5e5e; stroke:none;" d="M412 293L413 294L412 293z"/>
<path style="fill:#999a9a; stroke:none;" d="M415 293L416 294L415 293z"/>
<path style="fill:#e2e3e3; stroke:none;" d="M652 293L652 296C657.083 296 664.609 297.454 668 293L652 293z"/>
<path style="fill:#999a9a; stroke:none;" d="M393 294L394 295L393 294M396 294L397 295L396 294M405 294L406 295L405 294z"/>
<path style="fill:#5c5e5e; stroke:none;" d="M570 294L571 295L570 294z"/>
<path style="fill:#999a9a; stroke:none;" d="M394.667 295.333L395.333 295.667L394.667 295.333z"/>
<path style="fill:#5c5e5e; stroke:none;" d="M402 295L403 296L402 295M406 295L407 296L406 295M413 295L414 296L413 295z"/>
<path style="fill:#999a9a; stroke:none;" d="M132 296L132 297L136 297L132 296z"/>
<path style="fill:#5c5e5e; stroke:none;" d="M391 296L392 297L391 296z"/>
<path style="fill:#010102; stroke:none;" d="M392 296L391 299L399 306L384 305L396 316L397 313L389 306L404 307L392 296z"/>
<path style="fill:#999a9a; stroke:none;" d="M393 296L394 297L393 296z"/>
<path style="fill:#5c5e5e; stroke:none;" d="M403 296L404 297L403 296M407 296L408 297L407 296z"/>
<path style="fill:#999a9a; stroke:none;" d="M146 297L147 298L146 297M390 297L391 298L390 297M394 297L395 298L394 297M404 297L405 298L404 297z"/>
<path style="fill:#5c5e5e; stroke:none;" d="M408 297L409 298L408 297z"/>
<path style="fill:#999a9a; stroke:none;" d="M395 298L396 299L395 298M405 298L406 299L405 298M134.667 299.333L135.333 299.667L134.667 299.333z"/>
<path style="fill:#e2e3e3; stroke:none;" d="M131 312L147 311L147 308L142 309C138.679 295.717 131.008 300.353 131 312z"/>
<path style="fill:#999a9a; stroke:none;" d="M137 299L138 300L137 299z"/>
<path style="fill:#5c5e5e; stroke:none;" d="M392 299L393 300L392 299M396 299L397 300L396 299z"/>
<path style="fill:#999a9a; stroke:none;" d="M406 299L407 300L406 299M410 299L411 300L410 299M655 299L656 300L655 299z"/>
<path style="fill:#e2e3e3; stroke:none;" d="M660 312L660 306L658 309C649.589 304.185 663.773 298.851 665.098 305.189C665.529 307.252 663.558 310.031 663 312C672.629 308.35 667.158 297.644 658.015 299.232C648.517 300.882 651.975 311.265 660 312z"/>
<path style="fill:#999a9a; stroke:none;" d="M664 299L665 300L664 299M139 300L140 301L139 300z"/>
<path style="fill:#5c5e5e; stroke:none;" d="M393 300L394 301L393 300M397 300L398 301L397 300z"/>
<path style="fill:#999a9a; stroke:none;" d="M407 300L408 301L407 300z"/>
<path style="fill:#5c5e5e; stroke:none;" d="M409 300L410 301L409 300z"/>
<path style="fill:#999a9a; stroke:none;" d="M552 438L537.467 410.424L552 385C512.605 384.674 489.559 360.876 464 334C456.4 326.008 449.396 317.418 442.275 309C440.294 306.658 436.831 300.282 433.05 301.346C429.651 302.302 426.901 307.377 424.881 310C419.047 317.576 413.02 324.843 406.8 332.09C404.645 334.6 400.565 338.337 401.172 342C402.663 350.999 418.829 364.474 425.039 371C442.326 389.171 459.807 408.73 482 421.138C503.099 432.935 528.15 436.976 552 438M666 300L667 301L666 300z"/>
<path style="fill:#5c5e5e; stroke:none;" d="M394 301L395 302L394 301M398 301L399 302L398 301z"/>
<path style="fill:#999a9a; stroke:none;" d="M667 301L668 302L667 301M131 302L132 303L131 302M135.667 302.333L136.333 302.667L135.667 302.333M395 302L396 303L395 302z"/>
<path style="fill:#5c5e5e; stroke:none;" d="M399 302L400 303L399 302z"/>
<path style="fill:#338dc1; stroke:none;" d="M134 303L134 309L139 308C138.423 304.526 137.474 303.577 134 303z"/>
<path style="fill:#5c5e5e; stroke:none;" d="M385.667 303.333L386.333 303.667L385.667 303.333z"/>
<path style="fill:#999a9a; stroke:none;" d="M387.667 303.333L388.333 303.667L387.667 303.333M396 303L397 304L396 303M665 303L666 304L665 303M668 303L669 304L668 303M133 304L133 309L134 309L133 304z"/>
<path style="fill:#5c5e5e; stroke:none;" d="M384 304L385 305L384 304M391.667 304.333L392.333 304.667L391.667 304.333z"/>
<path style="fill:#999a9a; stroke:none;" d="M393.667 304.333L394.333 304.667L393.667 304.333M397 304L398 305L397 304M402 304L403 305L402 304z"/>
<path style="fill:#5c5e5e; stroke:none;" d="M523 304L524 305L523 304z"/>
<path style="fill:#999a9a; stroke:none;" d="M654 304L655 305L654 304M383 305L384 306L383 305z"/>
<path style="fill:#5c5e5e; stroke:none;" d="M397.667 305.333L398.333 305.667L397.667 305.333z"/>
<path style="fill:#999a9a; stroke:none;" d="M403 305L404 306L403 305M658.667 305.333L659.333 305.667L658.667 305.333M384 306L385 307L384 306z"/>
<path style="fill:#5c5e5e; stroke:none;" d="M389.667 306.333L390.333 306.667L389.667 306.333M500 306L501 307L500 306z"/>
<path style="fill:#999a9a; stroke:none;" d="M660 306L660 310L661 310L660 306M141 307L142 308L141 307M390 307L391 308L390 307M394.667 307.333L395.333 307.667L394.667 307.333z"/>
<path style="fill:#5c5e5e; stroke:none;" d="M396.667 307.333L397.333 307.667L396.667 307.333z"/>
<path style="fill:#999a9a; stroke:none;" d="M403 307L404 308L403 307M654 307L655 308L654 307M668 307L669 308L668 307M136 308L136 309L139 309L136 308M142 308L143 309L142 308z"/>
<path style="fill:#5c5e5e; stroke:none;" d="M227 308L228 309L227 308z"/>
<path style="fill:#999a9a; stroke:none;" d="M380 308L381 309L380 308z"/>
<path style="fill:#5c5e5e; stroke:none;" d="M381 308L382 309L381 308z"/>
<path style="fill:#999a9a; stroke:none;" d="M391 308L392 309L391 308M400 308L401 309L400 308z"/>
<path style="fill:#5c5e5e; stroke:none;" d="M401 308L402 309L401 308z"/>
<path style="fill:#999a9a; stroke:none;" d="M402 308L403 309L402 308z"/>
<path style="fill:#e2e3e3; stroke:none;" d="M441 308L442 309L441 308z"/>
<path style="fill:#999a9a; stroke:none;" d="M655.667 308.333L656.333 308.667L655.667 308.333M147.333 309.667L147.667 310.333L147.333 309.667z"/>
<path style="fill:#010102; stroke:none;" d="M380 309C382.658 313.979 387.659 318.184 393 320C390.483 315.029 385.384 310.511 380 309z"/>
<path style="fill:#999a9a; stroke:none;" d="M383 309L384 310L383 309z"/>
<path style="fill:#5c5e5e; stroke:none;" d="M388 309L389 310L388 309M392 309L393 310L392 309z"/>
<path style="fill:#999a9a; stroke:none;" d="M652 309L653 310L652 309M667 309L668 310L667 309M379 310L380 311L379 310M384 310L385 311L384 310z"/>
<path style="fill:#5c5e5e; stroke:none;" d="M389 310L390 311L389 310M393 310L394 311L393 310z"/>
<path style="fill:#999a9a; stroke:none;" d="M138 311L138 312L145 312L138 311M385 311L386 312L385 311M390 311L391 312L390 311z"/>
<path style="fill:#5c5e5e; stroke:none;" d="M394 311L395 312L394 311z"/>
<path style="fill:#999a9a; stroke:none;" d="M654.667 311.333L655.333 311.667L654.667 311.333z"/>
<path style="fill:#5c5e5e; stroke:none;" d="M382 312L383 313L382 312M386 312L387 313L386 312z"/>
<path style="fill:#999a9a; stroke:none;" d="M391 312L392 313L391 312z"/>
<path style="fill:#e2e3e3; stroke:none;" d="M145 313L146 321L141 321L141 315L139 315L139 322C135.229 320.81 134.431 318.828 134 315L132 315L133 325C144.221 324.969 148.493 324.516 148 313L145 313z"/>
<path style="fill:#5c5e5e; stroke:none;" d="M383 313L384 314L383 313M387 313L388 314L387 313z"/>
<path style="fill:#999a9a; stroke:none;" d="M392 313L393 314L392 313M397.333 313.667L397.667 314.333L397.333 313.667M145.333 314.667L145.667 315.333L145.333 314.667z"/>
<path style="fill:#5c5e5e; stroke:none;" d="M384 314L385 315L384 314M388 314L389 315L388 314z"/>
<path style="fill:#999a9a; stroke:none;" d="M393 314L394 315L393 314z"/>
<path style="fill:#e2e3e3; stroke:none;" d="M651 314L662 318L662 319L649 326L666 328L666 327L655 325L655 324L667 320L667 316L651 314z"/>
<path style="fill:#999a9a; stroke:none;" d="M657 314L658 315L657 314M131.333 315.667L131.667 316.333L131.333 315.667M138 315L138 318L139 318L138 315M385 315L386 316L385 315z"/>
<path style="fill:#5c5e5e; stroke:none;" d="M389 315L390 316L389 315z"/>
<path style="fill:#999a9a; stroke:none;" d="M396 315L397 316L396 315M662.667 315.333L663.333 315.667L662.667 315.333M373 316L374 317L373 316z"/>
<path style="fill:#5c5e5e; stroke:none;" d="M374 316L375 317L374 316z"/>
<path style="fill:#999a9a; stroke:none;" d="M375 316L376 317L375 316M386 316L387 317L386 316M651 316L652 317L651 316M667 316L667 319L668 319L667 316M148.333 317.667L148.667 318.333L148.333 317.667z"/>
<path style="fill:#010102; stroke:none;" d="M373 317L381 333C382.103 326.192 382.955 324.719 390 323L373 317z"/>
<path style="fill:#5c5e5e; stroke:none;" d="M377 317L378 318L377 317z"/>
<path style="fill:#999a9a; stroke:none;" d="M378 317L379 318L378 317M387 317L388 318L387 317M392 317L393 318L392 317M656.667 317.333L657.333 317.667L656.667 317.333M134.333 318.667L134.667 319.333L134.333 318.667M372 318L373 319L372 318M380 318L381 319L380 318M393 318L394 319L393 318M661 318L662 319L661 318z"/>
<path style="fill:#5c5e5e; stroke:none;" d="M373 319L374 320L373 319M376.333 319.667L376.667 320.333L376.333 319.667M382 319L383 320L382 319z"/>
<path style="fill:#999a9a; stroke:none;" d="M383 319L384 320L383 319z"/>
<path style="fill:#5c5e5e; stroke:none;" d="M390 319L391 320L390 319z"/>
<path style="fill:#999a9a; stroke:none;" d="M659 319L660 320L659 319M141 320L142 321L141 320M373 320L374 321L373 320z"/>
<path style="fill:#e2e3e3; stroke:none;" d="M377 320L379 325L382 322L377 320z"/>
<path style="fill:#5c5e5e; stroke:none;" d="M378 320L379 321L378 320M385 320L386 321L385 320z"/>
<path style="fill:#999a9a; stroke:none;" d="M386 320L387 321L386 320z"/>
<path style="fill:#5c5e5e; stroke:none;" d="M391 320L392 321L391 320z"/>
<path style="fill:#e2e3e3; stroke:none;" d="M430 320L432 326C427.464 328.353 422.919 331.583 423 337L435 328L439 330L430 320z"/>
<path style="fill:#999a9a; stroke:none;" d="M664 320L665 321L664 320M132.333 321.667L132.667 322.333L132.333 321.667z"/>
<path style="fill:#5c5e5e; stroke:none;" d="M374 321L375 322L374 321z"/>
<path style="fill:#999a9a; stroke:none;" d="M380 321L381 322L380 321z"/>
<path style="fill:#5c5e5e; stroke:none;" d="M381 321L382 322L381 321z"/>
<path style="fill:#999a9a; stroke:none;" d="M388 321L389 322L388 321M654 321L655 322L654 321M374 322L375 323L374 322z"/>
<path style="fill:#5c5e5e; stroke:none;" d="M377 322L378 323L377 322z"/>
<path style="fill:#999a9a; stroke:none;" d="M659 322L660 323L659 322M147.667 323.333L148.333 323.667L147.667 323.333z"/>
<path style="fill:#5c5e5e; stroke:none;" d="M375 323L376 324L375 323z"/>
<path style="fill:#999a9a; stroke:none;" d="M378 323L379 324L378 323z"/>
<path style="fill:#5c5e5e; stroke:none;" d="M381 323L382 324L381 323z"/>
<path style="fill:#999a9a; stroke:none;" d="M384.667 323.333L385.333 323.667L384.667 323.333z"/>
<path style="fill:#5c5e5e; stroke:none;" d="M386 323L387 324L386 323z"/>
<path style="fill:#999a9a; stroke:none;" d="M389 323L390 324L389 323M141 324L142 325L141 324M365 325L365 326L369 326L365 325z"/>
<path style="fill:#5c5e5e; stroke:none;" d="M378 324L379 325L378 324M380 324L381 325L380 324z"/>
<path style="fill:#999a9a; stroke:none;" d="M383 324L384 325L383 324M388 324L389 325L388 324M649 324L650 325L649 324M655.667 324.333L656.333 324.667L655.667 324.333M133 325L133 326L136 326L133 325z"/>
<path style="fill:#010102; stroke:none;" d="M366 325L365 326L371 339L358 334C357.127 339.915 364.092 344.712 369 347L362 338L373 342L369 330L378 336L366 325z"/>
<path style="fill:#5c5e5e; stroke:none;" d="M376 325L377 326L376 325M379 325L380 326L379 325M382 325L383 326L382 325z"/>
<path style="fill:#999a9a; stroke:none;" d="M661 325L662 326L661 325z"/>
<path style="fill:#5c5e5e; stroke:none;" d="M369 326L370 327L369 326M381 326L382 327L381 326z"/>
<path style="fill:#999a9a; stroke:none;" d="M650 326L651 327L650 326M665 326L666 327L665 326z"/>
<path style="fill:#e2e3e3; stroke:none;" d="M137 341C139.35 340.515 141.674 339.961 144.002 339.373C164.087 334.301 136.125 318.591 135.667 334.996C135.608 337.091 136.348 339.059 137 341z"/>
<path style="fill:#999a9a; stroke:none;" d="M147 327L148 328L147 327z"/>
<path style="fill:#5c5e5e; stroke:none;" d="M370 327L371 328L370 327M377 327L378 328L377 327M380 327L381 328L380 327z"/>
<path style="fill:#999a9a; stroke:none;" d="M655.667 327.333L656.333 327.667L655.667 327.333z"/>
<path style="fill:#5c5e5e; stroke:none;" d="M365 328L366 329L365 328M371 328L372 329L371 328z"/>
<path style="fill:#999a9a; stroke:none;" d="M661 328L662 329L661 328M665 328L666 329L665 328M137 329L138 330L137 329z"/>
<path style="fill:#5c5e5e; stroke:none;" d="M368 329L369 330L368 329M378 329L379 330L378 329M381 329L382 330L381 329z"/>
<path style="fill:#e2e3e3; stroke:none;" d="M459 329L460 330L459 329z"/>
<path style="fill:#999a9a; stroke:none;" d="M136 330L137 331L136 330M141 330L142 331L141 330z"/>
<path style="fill:#338dc1; stroke:none;" d="M138 337L149 335C146.726 327.509 139.047 330.382 138 337z"/>
<path style="fill:#999a9a; stroke:none;" d="M147 330L148 331L147 330z"/>
<path style="fill:#5c5e5e; stroke:none;" d="M366 330L367 331L366 330z"/>
<path style="fill:#999a9a; stroke:none;" d="M369 330L370 331L369 330M374 330L375 331L374 330M139 331L140 332L139 331M148 331L149 332L148 331z"/>
<path style="fill:#5c5e5e; stroke:none;" d="M369 331L370 332L369 331z"/>
<path style="fill:#999a9a; stroke:none;" d="M375 331L376 332L375 331M379 331L380 332L379 331M382 331L383 332L382 331M135 332L136 333L135 332M138 332L139 333L138 332M151 332L152 333L151 332z"/>
<path style="fill:#5c5e5e; stroke:none;" d="M367 332L368 333L367 332M372 332L373 333L372 332z"/>
<path style="fill:#999a9a; stroke:none;" d="M376 332L377 333L376 332M381 332L382 333L381 332z"/>
<path style="fill:#e2e3e3; stroke:none;" d="M428 343L434 340L435 340L438 354C445.166 353.774 443.331 358.908 447 363L454 346L437 351L439 344C446.133 344.677 448.069 335.36 440.981 333.331C436.001 331.906 430.4 339.602 428 343z"/>
<path style="fill:#5c5e5e; stroke:none;" d="M370 333L371 334L370 333M373 333L374 334L373 333z"/>
<path style="fill:#999a9a; stroke:none;" d="M377 333L378 334L377 333M149 334L150 335L149 334z"/>
<path style="fill:#5c5e5e; stroke:none;" d="M359 334L360 335L359 334z"/>
<path style="fill:#999a9a; stroke:none;" d="M360 334L361 335L360 334M368 334L369 335L368 334M371 334L372 335L371 334z"/>
<path style="fill:#5c5e5e; stroke:none;" d="M374 334L375 335L374 334M378.333 334.667L378.667 335.333L378.333 334.667z"/>
<path style="fill:#999a9a; stroke:none;" d="M135.333 335.667L135.667 336.333L135.333 335.667M146 335L147 336L146 335z"/>
<path style="fill:#5c5e5e; stroke:none;" d="M362 335L363 336L362 335M371 335L372 336L371 335M375 335L376 336L375 335z"/>
<path style="fill:#999a9a; stroke:none;" d="M440 335L437 340L442 342L440 335M142.667 336.333L143.333 336.667L142.667 336.333M152 336L153 337L152 336z"/>
<path style="fill:#5c5e5e; stroke:none;" d="M356 336L357 337L356 336M364 336L365 337L364 336z"/>
<path style="fill:#999a9a; stroke:none;" d="M365 336L366 337L365 336M369 336L370 337L369 336M372 336L373 337L372 336M376 336L377 337L376 336z"/>
<path style="fill:#5c5e5e; stroke:none;" d="M377 336L378 337L377 336z"/>
<path style="fill:#999a9a; stroke:none;" d="M138.667 337.333L139.333 337.667L138.667 337.333M151 337L152 338L151 337M356 337L357 338L356 337z"/>
<path style="fill:#5c5e5e; stroke:none;" d="M361 337L362 338L361 337M367 337L368 338L367 337M372 337L373 338L372 337z"/>
<path style="fill:#999a9a; stroke:none;" d="M147 338L148 339L147 338M362 338L366 340L366 339L362 338z"/>
<path style="fill:#5c5e5e; stroke:none;" d="M369.667 338.333L370.333 338.667L369.667 338.333z"/>
<path style="fill:#999a9a; stroke:none;" d="M373 338L374 339L373 338M143 339L144 340L143 339z"/>
<path style="fill:#5c5e5e; stroke:none;" d="M359 339L360 340L359 339z"/>
<path style="fill:#e2e3e3; stroke:none;" d="M364 339L365 340L364 339z"/>
<path style="fill:#5c5e5e; stroke:none;" d="M366 339L367 340L366 339z"/>
<path style="fill:#999a9a; stroke:none;" d="M136 340L137 341L136 340M139 340L140 341L139 340z"/>
<path style="fill:#5c5e5e; stroke:none;" d="M360 340L361 341L360 340z"/>
<path style="fill:#999a9a; stroke:none;" d="M368 340L369 341L368 340z"/>
<path style="fill:#5c5e5e; stroke:none;" d="M369 340L370 341L369 340z"/>
<path style="fill:#e2e3e3; stroke:none;" d="M469 340L470 341L469 340z"/>
<path style="fill:#5c5e5e; stroke:none;" d="M361 341L362 342L361 341M365 341L366 342L365 341z"/>
<path style="fill:#999a9a; stroke:none;" d="M371 341L372 342L371 341M373 341L374 342L373 341M362 342L363 343L362 342z"/>
<path style="fill:#5c5e5e; stroke:none;" d="M366 342L367 343L366 342z"/>
<path style="fill:#999a9a; stroke:none;" d="M363 343L364 344L363 343M364 344L365 345L364 344M369 344L370 345L369 344M365 345L366 346L365 345z"/>
<path style="fill:#5c5e5e; stroke:none;" d="M369 345L370 346L369 345z"/>
<path style="fill:#999a9a; stroke:none;" d="M368 347L369 348L368 347M445 351L446 354L448 354L450 350L445 351z"/>
<path style="fill:#e2e3e3; stroke:none;" d="M448 363L448 365L449 366L462 355L448 363M413 357L414 358L413 357M452 368L452 370L453 371L462 364L460 379L461 379C464.87 375.21 471.087 371.768 471 366L463 372L466 360C460.165 359.176 456.369 364.671 452 368z"/>
<path style="fill:#999a9a; stroke:none;" d="M249 387L250 388L249 387M252 392L253 393L252 392M254 395L255 396L254 395M255 397L256 398L255 397z"/>
<path style="fill:#e2e3e3; stroke:none;" d="M451 397L452 398L451 397z"/>
<path style="fill:#999a9a; stroke:none;" d="M257 400L258 401L257 400M258 402L259 403L258 402z"/>
<path style="fill:#e2e3e3; stroke:none;" d="M459 404L460 405L459 404z"/>
<path style="fill:#999a9a; stroke:none;" d="M260 405L261 406L260 405M261 407L262 408L261 407M263 410L264 411L263 410M263 412L264 413L263 412M262 414L263 415L262 414z"/>
<path style="fill:#e2e3e3; stroke:none;" d="M473 415L474 416L473 415z"/>
<path style="fill:#999a9a; stroke:none;" d="M260 417L261 418L260 417z"/>
<path style="fill:#e2e3e3; stroke:none;" d="M479 419L480 420L479 419z"/>
<path style="fill:#999a9a; stroke:none;" d="M258 420L259 421L258 420M257 422L258 423L257 422M255 425L256 426L255 425M253 428L254 429L253 428M252 430L253 431L252 430M250 433L251 434L250 433M248 436L249 437L248 436z"/>
</svg>
